I forget things after implementing so I am trying to automate stuff and create my clone, shadow an AI agent that manages everything running on my terminals (SRS server,  jyotishi.ai server, chachustudios.com server, cloudflared tunnel ) running on a macOS Apple M2 2022 24GB Memory running macOS Tahoe 26.4 on my server. 
Today, I am trying to figure out how an SRS server is streaming TV like services from my laptop, there are error messages being printed on the screen with time and I want to use that to transcribe live run time or show subtitles. Now when I open tv.chachustudios.com that video is being streamed from my laptop using SRS server and cloudflared tunnel and ffmeg commands. I can't remember what was this - /usr/local/srs/objs/nginx/html though. Help me write a cursor/claude prompt or you do it for me. I am a yoga teacher and I am doing some kriyas online on the video and I want to make it more interactive by starting to show text, or animations (in the future). Can you show me how to modify the text messages on the screen into a nice timer that show instructions. I would also like to show visualizations in the future to show users what are they doing with the breath and gaze and this is a step towards it. Help me create a Claude prompt to make chachustudios app that could do all of that from the app running on macOS or iOS. It would be nice to stream the video on the app and not on browser but if browser is easy we can start from there. Help me streamline my thoughts vision and action

docker run --rm -it \
  -p 1935:1935 \
  -p 1985:1985 \
  -p 8080:8080 \
  -v /Users/shiningankit/Workspace/Github/chachustudios.com/srv/tv:/usr/local/srs/objs/nginx/html \
  ossrs/srs:6

cloudflared tunnel --config /opt/homebrew/etc/cloudflared/config.yml run --token eyJhIjoiMGZjNjIyYjBiODk5M2I3ZmQ1ZDMzYzk0NzViNTQ2YTciLCJ0IjoiZDliZmI1YWMtYzAxNi00MzNmLThiYzMtODE3MGRhNzU0MTBiIiwicyI6IlpHRTNOMk14WWpJdFpERmlZUzAwT0RGbExXRTJaVEF0WlRGbU5tTTVZMlV5TmpsaSJ9

chachustudios scripts that stream either from the source (mic, camera) or from an existing audio video file

=== Hourly Slot 2026-06-27 07:00 ===
Video: srv/tv/studios/92129/2026-06-23.mp4
Audio: srv/tv/studios/92129/2026-06-23a.WAV
Target: rtmp://localhost/live/livestream
Command:
 ffmpeg -re -i /Users/shiningankit/Workspace/Github/chachustudios.com/srv/tv/studios/92129/2026-06-23.mp4 -re -i /Users/shiningankit/Workspace/Github/chachustudios.com/srv/tv/studios/92129/2026-06-23a.WAV -map 0:v:0 -map 1:a:0 -vcodec libx264 -preset veryfast -tune zerolatency -pix_fmt yuv420p -acodec aac -b:a 128k -ar 44100 -ac 2 -shortest -f flv rtmp://localhost/live/livestream

ffmpeg version 8.0.1 Copyright (c) 2000-2025 the FFmpeg developers
  built with Apple clang version 16.0.0 (clang-1600.0.26.6)
  configuration: --prefix=/opt/homebrew/Cellar/ffmpeg/8.0.1_3 --enable-shared --enable-pthreads --enable-version3 --cc=clang --host-cflags= --host-ldflags= --enable-ffplay --enable-gpl --enable-libsvtav1 --enable-libopus --enable-libx264 --enable-libmp3lame --enable-libdav1d --enable-libvpx --enable-libx265 --enable-openssl --enable-videotoolbox --enable-audiotoolbox --enable-neon
  libavutil      60.  8.100 / 60.  8.100
  libavcodec     62. 11.100 / 62. 11.100
  libavformat    62.  3.100 / 62.  3.100
  libavdevice    62.  1.100 / 62.  1.100
  libavfilter    11.  4.100 / 11.  4.100
  libswscale      9.  1.100 /  9.  1.100
  libswresample   6.  1.100 /  6.  1.100
Input #0, mov,mp4,m4a,3gp,3g2,mj2, from '/Users/shiningankit/Workspace/Github/chachustudios.com/srv/tv/studios/92129/2026-06-23.mp4':
  Metadata:
    major_brand     : isom
    minor_version   : 512
    compatible_brands: isomiso2avc1mp41
    encoder         : Lavf62.3.100
  Duration: 00:41:11.31, start: 0.000000, bitrate: 823 kb/s
  Stream #0:0[0x1](und): Video: h264 (High) (avc1 / 0x31637661), yuv420p(progressive), 1280x720, 708 kb/s, 10 fps, 10 tbr, 16k tbn (default)
    Metadata:
      handler_name    : VideoHandler
      vendor_id       : [0][0][0][0]
  Stream #0:1[0x2](und): Audio: aac (LC) (mp4a / 0x6134706D), 48000 Hz, stereo, fltp, 109 kb/s, start 0.216000 (default)
    Metadata:
      handler_name    : SoundHandler
      vendor_id       : [0][0][0][0]
[aist#1:0/pcm_s24le @ 0x9a2c14780] Guessed Channel Layout: stereo
Input #1, wav, from '/Users/shiningankit/Workspace/Github/chachustudios.com/srv/tv/studios/92129/2026-06-23a.WAV':
  Duration: 00:41:02.54, bitrate: 2304 kb/s
  Stream #1:0: Audio: pcm_s24le ([1][0][0][0] / 0x0001), 48000 Hz, stereo, s32 (24 bit), 2304 kb/s
Stream mapping:
  Stream #0:0 -> #0:0 (h264 (native) -> h264 (libx264))
  Stream #1:0 -> #0:1 (pcm_s24le (native) -> aac (native))
[vist#0:0/h264 @ 0x9a2c14600] Resumed reading at pts 0.000 with rate 1.050 after a lag of 0.500s
Press [q] to stop, [?] for help
[aist#1:0/pcm_s24le @ 0x9a2c14780] Resumed reading at pts 0.000 with rate 1.050 after a lag of 0.500s
[libx264 @ 0x9a2c4d880] using cpu capabilities: ARMv8 NEON DotProd I8MM
[libx264 @ 0x9a2c4d880] profile High, level 3.1, 4:2:0, 8-bit
[libx264 @ 0x9a2c4d880] 264 - core 165 r3222 b35605a - H.264/MPEG-4 AVC codec - Copyleft 2003-2025 - http://www.videolan.org/x264.html - options: cabac=1 ref=1 deblock=1:0:0 analyse=0x3:0x113 me=hex subme=2 psy=1 psy_rd=1.00:0.00 mixed_ref=0 me_range=16 chroma_me=1 trellis=0 8x8dct=1 cqm=0 deadzone=21,11 fast_pskip=1 chroma_qp_offset=0 threads=8 lookahead_threads=8 sliced_threads=1 slices=8 nr=0 decimate=1 interlaced=0 bluray_compat=0 constrained_intra=0 bframes=0 weightp=1 keyint=250 keyint_min=10 scenecut=40 intra_refresh=0 rc=crf mbtree=0 crf=23.0 qcomp=0.60 qpmin=0 qpmax=69 qpstep=4 ip_ratio=1.40 aq=1:1.00
Output #0, flv, to 'rtmp://localhost/live/livestream':
  Metadata:
    major_brand     : isom
    minor_version   : 512
    compatible_brands: isomiso2avc1mp41
    encoder         : Lavf62.3.100
  Stream #0:0(und): Video: h264 ([7][0][0][0] / 0x0007), yuv420p(tv, progressive), 1280x720, q=2-31, 10 fps, 1k tbn (default)
    Metadata:
      encoder         : Lavc62.11.100 libx264
      handler_name    : VideoHandler
      vendor_id       : [0][0][0][0]
    Side data:
      cpb: bitrate max/min/avg: 0/0/0 buffer size: 0 vbv_delay: N/A
  Stream #0:1: Audio: aac (LC) ([10][0][0][0] / 0x000A), 44100 Hz, stereo, fltp, 128 kb/s
    Metadata:
      encoder         : Lavc62.11.100 aac
[flv @ 0x9a301b980] Failed to update header with correct duration.te= 987.1kbits/s speed=   1x elapsed=0:41:02.57     
[flv @ 0x9a301b980] Failed to update header with correct filesize.
[out#0/flv @ 0x9a301c780] video:255399KiB audio:38926KiB subtitle:0KiB other streams:0KiB global headers:0KiB muxing overhead: 0.818984%
frame=24626 fps= 10 q=19.0 Lsize=  296735KiB time=00:41:02.50 bitrate= 987.1kbits/s speed=   1x elapsed=0:41:02.91    
[libx264 @ 0x9a2c4d880] frame I:99    Avg QP:12.40  size:131262
[libx264 @ 0x9a2c4d880] frame P:24527 Avg QP:14.32  size: 10133
[libx264 @ 0x9a2c4d880] mb I  I16..4:  4.4% 16.0% 79.6%
[libx264 @ 0x9a2c4d880] mb P  I16..4:  0.6%  1.6%  0.9%  P16..4: 29.5%  6.8%  4.3%  0.0%  0.0%    skip:56.4%
[libx264 @ 0x9a2c4d880] 8x8 transform intra:47.9% inter:28.6%
[libx264 @ 0x9a2c4d880] coded y,uvDC,uvAC intra: 75.3% 62.7% 18.4% inter: 9.9% 18.4% 0.4%
[libx264 @ 0x9a2c4d880] i16 v,h,dc,p: 47% 17% 23% 13%
[libx264 @ 0x9a2c4d880] i8 v,h,dc,ddl,ddr,vr,hd,vl,hu: 29% 22% 19%  2%  6%  5%  5%  5%  6%
[libx264 @ 0x9a2c4d880] i4 v,h,dc,ddl,ddr,vr,hd,vl,hu: 26% 20% 17%  3%  9%  6%  6%  6%  6%
[libx264 @ 0x9a2c4d880] i8c dc,h,v,p: 54% 17% 23%  5%
[libx264 @ 0x9a2c4d880] Weighted P-Frames: Y:5.7% UV:1.2%
[libx264 @ 0x9a2c4d880] kb/s:849.60
[aac @ 0x9a2d98380] Qavg: 940.593
Waiting 1137s until next hourly slot at 2026-06-27 08:00:00

=== Hourly Slot 2026-06-27 08:00 ===
Video: srv/tv/studios/92129/2026-06-23.mp4
Audio: srv/tv/studios/92129/2026-06-23a.WAV
Target: rtmp://localhost/live/livestream
Command:
 ffmpeg -re -i /Users/shiningankit/Workspace/Github/chachustudios.com/srv/tv/studios/92129/2026-06-23.mp4 -re -i /Users/shiningankit/Workspace/Github/chachustudios.com/srv/tv/studios/92129/2026-06-23a.WAV -map 0:v:0 -map 1:a:0 -vcodec libx264 -preset veryfast -tune zerolatency -pix_fmt yuv420p -acodec aac -b:a 128k -ar 44100 -ac 2 -shortest -f flv rtmp://localhost/live/livestream

ffmpeg version 8.0.1 Copyright (c) 2000-2025 the FFmpeg developers
  built with Apple clang version 16.0.0 (clang-1600.0.26.6)
  configuration: --prefix=/opt/homebrew/Cellar/ffmpeg/8.0.1_3 --enable-shared --enable-pthreads --enable-version3 --cc=clang --host-cflags= --host-ldflags= --enable-ffplay --enable-gpl --enable-libsvtav1 --enable-libopus --enable-libx264 --enable-libmp3lame --enable-libdav1d --enable-libvpx --enable-libx265 --enable-openssl --enable-videotoolbox --enable-audiotoolbox --enable-neon
  libavutil      60.  8.100 / 60.  8.100
  libavcodec     62. 11.100 / 62. 11.100
  libavformat    62.  3.100 / 62.  3.100
  libavdevice    62.  1.100 / 62.  1.100
  libavfilter    11.  4.100 / 11.  4.100
  libswscale      9.  1.100 /  9.  1.100
  libswresample   6.  1.100 /  6.  1.100
Input #0, mov,mp4,m4a,3gp,3g2,mj2, from '/Users/shiningankit/Workspace/Github/chachustudios.com/srv/tv/studios/92129/2026-06-23.mp4':
  Metadata:
    major_brand     : isom
    minor_version   : 512
    compatible_brands: isomiso2avc1mp41
    encoder         : Lavf62.3.100
  Duration: 00:41:11.31, start: 0.000000, bitrate: 823 kb/s
  Stream #0:0[0x1](und): Video: h264 (High) (avc1 / 0x31637661), yuv420p(progressive), 1280x720, 708 kb/s, 10 fps, 10 tbr, 16k tbn (default)
    Metadata:
      handler_name    : VideoHandler
      vendor_id       : [0][0][0][0]
  Stream #0:1[0x2](und): Audio: aac (LC) (mp4a / 0x6134706D), 48000 Hz, stereo, fltp, 109 kb/s, start 0.216000 (default)
    Metadata:
      handler_name    : SoundHandler
      vendor_id       : [0][0][0][0]
[aist#1:0/pcm_s24le @ 0xb05010780] Guessed Channel Layout: stereo
Input #1, wav, from '/Users/shiningankit/Workspace/Github/chachustudios.com/srv/tv/studios/92129/2026-06-23a.WAV':
  Duration: 00:41:02.54, bitrate: 2304 kb/s
  Stream #1:0: Audio: pcm_s24le ([1][0][0][0] / 0x0001), 48000 Hz, stereo, s32 (24 bit), 2304 kb/s
Stream mapping:
  Stream #0:0 -> #0:0 (h264 (native) -> h264 (libx264))
  Stream #1:0 -> #0:1 (pcm_s24le (native) -> aac (native))
Press [q] to stop, [?] for help
